<?xml version="1.0" standalone="no"?>
<!DOCTYPE svg PUBLIC "-//W3C//DTD SVG 20010904//EN"
 "http://www.w3.org/TR/2001/REC-SVG-20010904/DTD/svg10.dtd">
<svg version="1.0" xmlns="http://www.w3.org/2000/svg"
 width="1024.000000pt" height="1024.000000pt" viewBox="0 0 1024.000000 1024.000000"
 preserveAspectRatio="xMidYMid meet">

<g transform="translate(0.000000,1024.000000) scale(0.100000,-0.100000)"
fill="#000000" stroke="none">
<path d="M4828 8920 c-225 -17 -507 -66 -720 -125 -485 -136 -849 -313 -1254
-610 -556 -407 -1049 -1067 -1288 -1727 -108 -298 -166 -541 -218 -918 -20
-149 -17 -710 5 -870 88 -623 289 -1160 622 -1660 374 -562 862 -995 1460
-1297 700 -354 1441 -478 2255 -377 871 108 1727 569 2336 1260 295 333 552
761 707 1174 240 638 311 1267 216 1900 -127 842 -503 1586 -1106 2182 -230
229 -384 352 -633 508 -471 294 -964 467 -1561 546 -136 18 -649 27 -821 14z
m657 -420 c669 -63 1234 -275 1730 -650 501 -379 859 -850 1089 -1433 233
-589 303 -1168 216 -1782 -94 -659 -415 -1336 -872 -1836 -553 -604 -1328
-989 -2152 -1069 -160 -15 -548 -12 -701 5 -403 45 -766 151 -1130 330 -373
183 -624 362 -900 639 -173 175 -284 312 -430 531 -295 443 -475 920 -547
1450 -30 218 -32 663 -4 860 82 587 268 1084 574 1530 376 548 932 985 1545
1214 295 110 582 175 947 214 80 9 533 6 635 -3z"/>
<path d="M4301 7040 c-26 -119 -79 -176 -190 -204 -60 -15 -62 -31 -4 -45 107
-27 167 -87 194 -194 6 -26 16 -46 22 -44 5 1 16 26 23 55 21 79 55 126 115
156 29 14 61 26 70 26 26 0 49 11 49 24 0 6 -27 19 -60 29 -34 10 -75 31 -96
49 -43 38 -84 118 -84 166 0 52 -27 40 -39 -18z"/>
<path d="M3545 6413 c-31 -109 -77 -157 -168 -178 -28 -6 -52 -16 -54 -21 -2
-6 22 -16 54 -24 74 -16 144 -81 163 -150 7 -25 14 -51 16 -57 8 -28 21 -10
37 46 9 32 29 73 44 91 29 36 114 80 151 80 39 0 19 23 -31 36 -90 23 -148 85
-167 181 -6 29 -15 53 -20 53 -5 0 -16 -26 -25 -57z"/>
<path d="M4355 6318 c-146 -27 -290 -140 -360 -282 -55 -111 -66 -213 -37
-332 26 -107 68 -179 147 -252 142 -132 354 -172 531 -99 l62 25 74 -77 c41
-42 119 -125 173 -186 55 -60 168 -183 252 -271 84 -89 153 -166 153 -172 0
-6 -8 -24 -17 -40 -16 -28 -16 -33 0 -84 17 -55 96 -190 109 -186 4 2 92 87
196 190 l189 187 -31 29 c-68 66 -104 82 -176 82 l-68 0 -193 206 c-107 114
-254 270 -327 348 -83 89 -131 147 -128 156 3 8 17 49 32 90 36 99 38 223 5
319 -85 245 -338 396 -586 349z m218 -194 c61 -21 145 -97 177 -160 19 -37 26
-69 28 -132 4 -79 2 -88 -31 -156 -29 -58 -47 -80 -93 -114 -102 -76 -227 -92
-329 -42 -68 33 -140 104 -172 168 -53 108 -32 251 51 349 32 38 117 89 172
102 50 13 136 6 197 -15z"/>
<path d="M3720 5513 c-28 -180 -103 -259 -272 -288 -48 -8 -54 -41 -10 -51
185 -41 245 -101 281 -282 14 -72 20 -87 36 -87 16 0 21 13 32 79 30 176 99
253 256 286 44 9 57 15 57 30 0 15 -13 20 -70 30 -148 25 -228 122 -246 296
-6 58 -9 64 -29 64 -20 0 -23 -8 -35 -77z"/>
<path d="M5667 4507 l-198 -192 462 -485 c694 -730 690 -726 739 -751 36 -19
61 -24 120 -24 87 0 133 20 191 82 53 55 72 99 77 180 8 124 12 118 -417 568
-53 55 -249 261 -435 458 -186 196 -339 357 -340 357 -1 0 -90 -87 -199 -193z"/>
</g>
</svg>
